<svg width="20" height="20" viewBox="0 0 20 20" fill="none" xmlns="http://www.w3.org/2000/svg">
<g clip-path="url(#clip0_57_147)">
<mask id="mask0_57_147" style="mask-type:luminance" maskUnits="userSpaceOnUse" x="0" y="0" width="20" height="20">
<path d="M10 20C15.5228 20 20 15.5228 20 10C20 4.47715 15.5228 0 10 0C4.47715 0 0 4.47715 0 10C0 15.5228 4.47715 20 10 20Z" fill="white"/>
</mask>
<g mask="url(#mask0_57_147)">
<path d="M10 20C15.5228 20 20 15.5228 20 10C20 4.47715 15.5228 0 10 0C4.47715 0 0 4.47715 0 10C0 15.5228 4.47715 20 10 20Z" fill="black"/>
<path d="M16.612 17.5022L7.68242 6H6V13.9966H7.34594V7.70937L15.5555 18.3161C15.9254 18.0686 16.2783 17.7967 16.612 17.5022Z" fill="url(#paint0_linear_57_147)"/>
<path d="M12.7778 6H14.1112V14H12.7778V6Z" fill="url(#paint1_linear_57_147)"/>
</g>
</g>
<defs>
<linearGradient id="paint0_linear_57_147" x1="596.379" y1="700.443" x2="950.758" y2="1139.68" gradientUnits="userSpaceOnUse">
<stop stop-color="white"/>
<stop offset="1" stop-color="white" stop-opacity="0"/>
</linearGradient>
<linearGradient id="paint1_linear_57_147" x1="79.4458" y1="6" x2="77.1899" y2="593.496" gradientUnits="userSpaceOnUse">
<stop stop-color="white"/>
<stop offset="1" stop-color="white" stop-opacity="0"/>
</linearGradient>
<clipPath id="clip0_57_147">
<rect width="20" height="20" fill="white"/>
</clipPath>
</defs>
</svg>
