<svg width="55" height="55" viewBox="0 0 55 55" fill="none" xmlns="http://www.w3.org/2000/svg">
<path d="M4.58268 34.3753C5.19047 34.3753 5.77336 34.6168 6.20314 35.0465C6.63291 35.4763 6.87435 36.0592 6.87435 36.667C6.87435 37.2748 6.63291 37.8577 6.20314 38.2874C5.77336 38.7172 5.19047 38.9587 4.58268 38.9587C3.97489 38.9587 3.392 38.7172 2.96223 38.2874C2.53246 37.8577 2.29102 37.2748 2.29102 36.667C2.29102 36.0592 2.53246 35.4763 2.96223 35.0465C3.392 34.6168 3.97489 34.3753 4.58268 34.3753ZM48.1244 38.9587H43.541V20.6253H38.9577V16.042H52.7077V20.6253H48.1244V38.9587ZM36.666 16.042V20.6253H32.0827V25.2087H36.666V29.792H32.0827V34.3753H36.666V38.9587H27.4993V16.042H36.666ZM25.2077 16.042V38.9587H20.6243L13.7493 25.2087V38.9587H9.16602V16.042H13.7493L20.6243 29.792V16.042H25.2077Z" fill="white"/>
</svg>
