<svg width="16" height="16" viewBox="0 0 16 16" fill="none" xmlns="http://www.w3.org/2000/svg">
<g clip-path="url(#clip0_57_155)">
<path d="M9.41537 0.0500518C9.30312 0.0500518 9.19087 0.0749268 9.09112 0.112302C9.30312 0.249552 9.41537 0.436552 9.47775 0.648552C9.47775 0.673552 9.49025 0.698552 9.49025 0.723427C9.49025 0.748427 9.50275 0.773302 9.50275 0.798177C9.51525 1.15993 9.40287 1.2098 9.32812 1.4218C9.20337 1.69605 9.24088 1.99543 9.3905 2.2323C9.403 2.2573 9.4155 2.2948 9.44038 2.31968C9.27825 1.27218 10.1511 1.12243 10.3132 0.798177C10.3257 0.511427 10.0889 0.324427 9.90175 0.187177C9.71475 0.0749268 9.565 0.0499268 9.4155 0.0499268L9.41537 0.0500518ZM10.725 0.274302C10.7125 0.374052 10.725 0.349177 10.7125 0.399052C10.7125 0.436427 10.7125 0.473802 10.7 0.511302C10.6875 0.548677 10.6875 0.573677 10.675 0.611052C10.6625 0.648427 10.6501 0.673427 10.6376 0.710802C10.6251 0.735802 10.6126 0.760677 10.6001 0.798052C10.5878 0.810552 10.5752 0.835552 10.5629 0.848052C10.5504 0.860552 10.5504 0.872927 10.5379 0.885427C10.5129 0.910427 10.5004 0.947677 10.4755 0.972677L10.4008 1.04755C10.3758 1.07255 10.3508 1.09743 10.3259 1.1098C10.2386 1.1723 10.1389 1.22205 10.0515 1.28443C10.0265 1.30943 9.98912 1.32193 9.96425 1.3468C9.93925 1.3718 9.91425 1.3843 9.88937 1.40918L9.81462 1.48393C9.78962 1.50893 9.76462 1.53393 9.75212 1.5713C9.72725 1.5963 9.71475 1.63368 9.68987 1.65855C9.67737 1.69605 9.66488 1.72093 9.64 1.7583C9.6275 1.7958 9.615 1.8208 9.6025 1.85805C9.59 1.89555 9.57763 1.93293 9.57763 1.9578C9.57763 1.9703 9.57763 1.9953 9.56513 2.0078C9.56513 2.0203 9.56512 2.04518 9.55262 2.05768V2.23218C9.55262 2.26968 9.55263 2.29468 9.56513 2.33193C9.56513 2.36943 9.57763 2.39443 9.59013 2.4318C9.60263 2.46918 9.61513 2.49405 9.62763 2.53155C9.64 2.55655 9.6525 2.56893 9.6525 2.59393L8.70463 2.23218C8.5483 2.18481 8.39027 2.14324 8.23088 2.10755C8.1435 2.08255 8.05625 2.07005 7.96887 2.04505C7.72143 1.99552 7.47172 1.9581 7.22062 1.93293H7.19562C6.94625 1.90793 6.70938 1.89543 6.46 1.89543C6.27288 1.89543 6.09825 1.90793 5.92375 1.92043C5.67425 1.93293 5.425 1.97043 5.1755 2.0078L4.98838 2.04518C4.86375 2.07018 4.739 2.09505 4.61425 2.13243C4.55188 2.14493 4.48962 2.16993 4.42725 2.18243C4.36487 2.2073 4.3025 2.23218 4.25262 2.25718C4.20275 2.28218 4.16537 2.29468 4.1155 2.31955C4.103 2.31955 4.103 2.31955 4.0905 2.33205C4.053 2.35693 4.01575 2.36943 3.97825 2.3943C3.96575 2.3943 3.95325 2.4068 3.95325 2.4068C3.9035 2.4318 3.866 2.4568 3.82862 2.46918C3.80362 2.48168 3.76625 2.49418 3.74137 2.50668C3.72887 2.51905 3.71638 2.51905 3.70388 2.53155C3.6665 2.55655 3.62912 2.56893 3.59162 2.5938C3.55425 2.6188 3.51687 2.6313 3.49187 2.6563C3.46687 2.68118 3.4295 2.69368 3.40462 2.71855C3.40462 2.71855 3.39212 2.71855 3.39212 2.73105C3.36712 2.74355 3.34225 2.76855 3.31737 2.79343L3.30487 2.80593C3.27987 2.81843 3.26738 2.8433 3.2425 2.8558C3.23 2.8558 3.23 2.8683 3.2175 2.8683C3.19262 2.8808 3.18013 2.90568 3.15525 2.91805C3.15525 2.93055 3.14275 2.93055 3.14275 2.93055L3.06787 3.00543L3.05538 3.01793L2.98062 3.09268C2.98062 3.09268 2.98063 3.10518 2.96813 3.10518L2.90575 3.16755C2.89325 3.18005 2.88075 3.18005 2.88075 3.19255L2.806 3.2673C2.806 3.2798 2.7935 3.2798 2.7935 3.2923L2.69375 3.39193L2.68125 3.40443C2.619 3.4793 2.54412 3.54168 2.46937 3.60405C2.39462 3.66643 2.31962 3.72868 2.23237 3.79105C2.14512 3.85343 2.07025 3.9033 1.983 3.95318C1.89575 4.00305 1.80838 4.04043 1.72113 4.07793C1.63375 4.1153 1.5465 4.15268 1.45925 4.17768C1.28462 4.21518 1.11 4.28993 0.960375 4.3023C0.960375 4.24005 0.922875 4.25243 0.8855 4.25243C0.848125 4.26493 0.81075 4.26493 0.78575 4.27743C0.74825 4.28993 0.723375 4.30243 0.686 4.31493C0.650457 4.32645 0.616836 4.34322 0.58625 4.36468C0.56125 4.38968 0.523875 4.40218 0.499 4.42718C0.474 4.45205 0.4365 4.47693 0.411625 4.50193C0.386625 4.52693 0.34925 4.5518 0.324375 4.57668C0.299375 4.60168 0.274375 4.62668 0.2495 4.66405C0.2245 4.70143 0.199625 4.7263 0.187125 4.7638C0.16225 4.7888 0.14975 4.82618 0.124875 4.86355C0.112375 4.90105 0.087375 4.9383 0.074875 4.9758L0.0375 5.08805C0.025 5.12543 0.025 5.1503 0.0125 5.1878V5.2003C0 5.2378 0 5.28755 0 5.31255C0.0125 5.30005 0.0125 5.32505 0.0125 5.34993V5.3998C0.0125 5.4248 0.025 5.44968 0.025 5.47455C0.0375 5.49955 0.0375 5.52455 0.05 5.54943C0.062375 5.57443 0.074875 5.5993 0.09975 5.6243C0.11225 5.6493 0.13725 5.67418 0.14975 5.69905C0.174625 5.72405 0.1995 5.74905 0.2245 5.76143C0.2495 5.78643 0.274375 5.81143 0.29925 5.8238C0.399 5.91105 0.424 5.93605 0.54875 6.0108C0.57375 6.0233 0.586125 6.0358 0.611125 6.0483H0.623625V6.0733C0.623625 6.11055 0.636125 6.13555 0.6485 6.17293C0.661 6.21043 0.6735 6.2478 0.686 6.27268L0.72325 6.34755C0.72325 6.36005 0.73575 6.36005 0.73575 6.37255C0.74825 6.40993 0.77325 6.4348 0.78575 6.4598C0.810625 6.4848 0.823125 6.52218 0.848 6.54705L0.922875 6.62193L0.997625 6.69668H1.01013C1.03513 6.72168 1.06 6.73418 1.085 6.75918C1.11 6.78418 1.14738 6.79655 1.17225 6.80893C1.19725 6.82143 1.23462 6.84643 1.272 6.85893C1.297 6.87143 1.322 6.8838 1.35925 6.8838C1.35925 6.8838 1.37175 6.8838 1.37175 6.8963C1.38425 6.8963 1.40925 6.9088 1.42175 6.9088C1.40925 7.13318 1.40925 7.34518 1.43425 7.42005C1.4715 7.5073 1.65863 7.24543 1.83325 6.95868C1.80825 7.24543 1.79575 7.58218 1.83325 7.68193C1.88313 7.78168 2.12 7.45743 2.3445 7.10818C5.26262 6.4348 7.93138 8.45505 8.21825 11.3109C8.16825 10.8619 7.6195 10.6126 7.35775 10.6749C7.233 10.9742 7.021 11.3733 6.68437 11.6102C6.70937 11.3358 6.69687 11.0614 6.64687 10.7872C6.55962 11.1613 6.385 11.5229 6.13562 11.8222C5.749 11.8472 5.35 11.6601 5.15037 11.3733C5.13787 11.3608 5.12537 11.3358 5.113 11.3233C5.1005 11.2984 5.088 11.2611 5.0755 11.2361C5.063 11.2111 5.05062 11.1737 5.05062 11.1488V10.9992C5.05062 10.9742 5.06312 10.9367 5.07562 10.9118C5.08812 10.8869 5.08813 10.8494 5.10063 10.8246C5.113 10.7996 5.1255 10.7622 5.15037 10.7373C5.22525 10.5377 5.22525 10.3756 5.088 10.2883L5.01325 10.2508C5.00075 10.2508 4.97575 10.2384 4.96325 10.2384C4.95075 10.2384 4.93838 10.2259 4.92588 10.2259C4.901 10.2134 4.86362 10.2134 4.83862 10.2009C4.81362 10.1884 4.77625 10.1884 4.75138 10.1884C4.72638 10.1884 4.68888 10.1761 4.664 10.1761H4.60175C4.56425 10.1761 4.53925 10.1761 4.51438 10.1886C4.48938 10.1886 4.452 10.2011 4.42712 10.2011C4.40212 10.2136 4.36475 10.2136 4.33975 10.2261C4.31487 10.2384 4.28988 10.2509 4.2525 10.2633L4.17763 10.3008C3.21738 10.9243 3.79112 12.3958 4.43962 12.8198C4.19012 12.8698 3.94075 12.9196 3.86588 12.9696L3.85337 12.9821C4.028 13.0942 4.21513 13.1816 4.41463 13.2563C4.6765 13.3437 4.96337 13.4184 5.088 13.4559C5.42475 13.5307 5.774 13.5557 6.12313 13.5307C7.94388 13.4059 9.44038 12.0093 9.71463 10.1886C9.72713 10.2261 9.72712 10.2633 9.73962 10.3008C9.75212 10.3756 9.76463 10.4504 9.77713 10.5377C9.78963 10.5752 9.78963 10.6126 9.78963 10.6499V10.6624C9.78963 10.6999 9.802 10.7373 9.802 10.7747C9.802 10.8246 9.8145 10.8619 9.8145 10.9118V11.4356C9.8145 11.4731 9.802 11.4981 9.802 11.5354V11.5728C9.802 11.6103 9.7895 11.6477 9.7895 11.6976C9.777 11.7349 9.777 11.7723 9.7645 11.8098V11.8223C9.752 11.8597 9.752 11.8971 9.73962 11.9344V11.9469C9.72712 11.9844 9.72713 12.0218 9.71463 12.0592V12.0717L9.67725 12.1839V12.1964C9.66475 12.2338 9.65225 12.2837 9.63988 12.3211C9.62738 12.3586 9.61488 12.3959 9.58988 12.4458C9.5775 12.4832 9.565 12.5331 9.54012 12.5704C9.52762 12.6079 9.50262 12.6453 9.49012 12.6952C9.47775 12.7327 9.45275 12.7701 9.44038 12.8074C9.44038 12.8199 9.42787 12.8324 9.42787 12.8324C9.42787 12.8324 9.42787 12.8449 9.41537 12.8449C9.1535 13.3811 8.7545 13.8549 8.25562 14.2291C8.21812 14.2541 8.19325 14.2791 8.15588 14.3039C8.14338 14.3164 8.13087 14.3164 8.13087 14.3289C8.10587 14.3538 8.0685 14.3663 8.04362 14.3912L8.05612 14.4162C8.11837 14.4037 8.16838 14.4037 8.23063 14.3912C8.34288 14.3787 8.44263 14.3537 8.55488 14.3288C8.57988 14.3288 8.61738 14.3163 8.64225 14.3038C8.66725 14.3038 8.67963 14.2913 8.7045 14.2913C8.72938 14.2913 8.767 14.2789 8.79187 14.2789C8.81687 14.2664 8.84175 14.2664 8.86662 14.2539C9.27825 14.1543 9.67725 14.0171 10.0639 13.8549C9.40288 14.7528 8.53 15.4762 7.50737 15.9499C7.98125 15.9126 8.45513 15.8378 8.9165 15.7006C10.5733 15.214 11.9714 14.0938 12.8074 12.5829C12.6329 13.5307 12.2586 14.4411 11.6975 15.2392C12.0966 14.9773 12.4583 14.6654 12.795 14.3288C13.7178 13.3686 14.3287 12.1339 14.5284 10.8246C14.6656 11.4731 14.7155 12.1464 14.6531 12.8074C17.6336 8.65468 14.9025 4.3523 13.7552 3.21743C13.7552 3.20493 13.7428 3.20493 13.7428 3.19243C13.7428 3.24243 13.7428 3.29218 13.7303 3.34218C13.7178 3.44193 13.7052 3.52918 13.6927 3.61643C13.6679 3.7038 13.643 3.80355 13.618 3.8908C13.593 3.97818 13.5556 4.06543 13.5183 4.15268C13.4809 4.23993 13.4434 4.3273 13.3935 4.40218C13.3436 4.47705 13.2937 4.5643 13.2439 4.63905C13.194 4.7138 13.1316 4.78868 13.0693 4.86355C13.007 4.93843 12.9446 5.00068 12.8698 5.07555C12.8323 5.11305 12.795 5.15043 12.7451 5.1753C12.7076 5.2003 12.6826 5.2253 12.6453 5.26255C12.5705 5.32505 12.4956 5.3748 12.4084 5.42468C12.3335 5.47468 12.2463 5.52455 12.159 5.56193L11.897 5.67418C11.8098 5.71155 11.7225 5.73655 11.6351 5.76143C11.5479 5.78643 11.4481 5.81143 11.3608 5.8238C11.261 5.8363 11.1738 5.8488 11.0865 5.8613C11.024 5.8613 10.9493 5.87368 10.8869 5.87368C10.7871 5.87368 10.6999 5.86118 10.6126 5.86118C10.5128 5.84868 10.4255 5.83618 10.3383 5.82368C10.2437 5.81213 10.1512 5.78695 10.0639 5.74893C10.1511 5.73643 10.2509 5.73643 10.3383 5.71155C10.438 5.69905 10.5253 5.67405 10.6126 5.64918C10.6999 5.62418 10.7996 5.5993 10.8745 5.56193L11.1364 5.44968C11.2236 5.41218 11.2985 5.36243 11.3857 5.31255C11.4606 5.26255 11.5479 5.2003 11.6228 5.15043C11.6975 5.08793 11.7724 5.02568 11.8348 4.9633C11.9095 4.90093 11.9719 4.82618 12.0343 4.7638C12.0966 4.68893 12.159 4.61418 12.2089 4.5393C12.2214 4.5268 12.2214 4.5143 12.2339 4.5018C12.2711 4.43955 12.321 4.36468 12.3585 4.30243C12.4049 4.22177 12.4465 4.13846 12.4831 4.05293C12.5206 3.96568 12.5581 3.8783 12.583 3.79105L12.6578 3.52918C12.6703 3.42943 12.6952 3.34218 12.6952 3.2548C12.7077 3.15505 12.7078 3.0678 12.7078 2.98043C12.7078 2.91818 12.7077 2.8433 12.6952 2.78093C12.6827 2.68118 12.6703 2.59393 12.6578 2.50655C12.6453 2.4068 12.6203 2.31955 12.5954 2.23218C12.5704 2.14493 12.533 2.05768 12.5081 1.9703C12.4706 1.88305 12.4332 1.7958 12.3959 1.72093C12.346 1.63368 12.3086 1.5588 12.2587 1.47155C12.2087 1.39668 12.1465 1.3218 12.0966 1.24705C12.0343 1.17218 11.9719 1.1098 11.9095 1.03505C11.8721 0.997552 11.8347 0.960177 11.7972 0.935302C11.6102 0.785677 11.4231 0.660927 11.2236 0.536177C11.1986 0.523677 11.1738 0.511177 11.1364 0.498677C10.9743 0.361677 10.8496 0.324177 10.725 0.274302Z" fill="#DF234F"/>
</g>
<defs>
<clipPath id="clip0_57_155">
<rect width="16" height="16" fill="white"/>
</clipPath>
</defs>
</svg>
