<svg width="55" height="55" viewBox="0 0 55 55" fill="none" xmlns="http://www.w3.org/2000/svg">
<path d="M38.9583 18.333V36.6663H48.125M29.7917 34.3747L32.0833 36.6663M6.875 34.3747C6.875 34.9825 7.11644 35.5654 7.54621 35.9951C7.97598 36.4249 8.55888 36.6663 9.16667 36.6663H13.75C14.3578 36.6663 14.9407 36.4249 15.3705 35.9951C15.8002 35.5654 16.0417 34.9825 16.0417 34.3747V29.7913C16.0417 29.1836 15.8002 28.6007 15.3705 28.1709C14.9407 27.7411 14.3578 27.4997 13.75 27.4997H9.16667C8.55888 27.4997 7.97598 27.2582 7.54621 26.8285C7.11644 26.3987 6.875 25.8158 6.875 25.208V20.6247C6.875 20.0169 7.11644 19.434 7.54621 19.0042C7.97598 18.5745 8.55888 18.333 9.16667 18.333H13.75C14.3578 18.333 14.9407 18.5745 15.3705 19.0042C15.8002 19.434 16.0417 20.0169 16.0417 20.6247M27.5 18.333C28.7156 18.333 29.8814 18.8159 30.7409 19.6754C31.6004 20.535 32.0833 21.7008 32.0833 22.9163V32.083C32.0833 33.2986 31.6004 34.4644 30.7409 35.3239C29.8814 36.1835 28.7156 36.6663 27.5 36.6663C26.2844 36.6663 25.1186 36.1835 24.2591 35.3239C23.3996 34.4644 22.9167 33.2986 22.9167 32.083V22.9163C22.9167 21.7008 23.3996 20.535 24.2591 19.6754C25.1186 18.8159 26.2844 18.333 27.5 18.333Z" stroke="white" stroke-width="2" stroke-linecap="round" stroke-linejoin="round"/>
</svg>
